#!OML:ASF E:/inclinewalkrobotboard/Project1/Captureday1/Session1/subject1.ASF
:FULLY-SPECIFIED
:DEGREES
213
root 0 0 0 2.079292578092571 1.2233014484822 -1.0175153428371844
lowerback 10.985776732924565 -0.2957372446450336 -2.288243689255655
upperback 2.005258046657176 -0.6949835681564067 1.1020113305172956
thorax -3.937082257062947 -0.2543028599663536 2.420198277518268
lowerneck -6.572861565027197 -1.9696204861183817 -0.1744150100398515
upperneck 24.518364580742894 -3.0552687056192016 2.3788823942933077
head 9.251947385245062 -1.2775572166673481 0.5886194487059563
rclavicle 5.1570183816052134E-15 2.660896867484763E-15
rhumerus -8.331854191503 13.811495690796626 -50.847846908577665
rradius 106.56060559961014
rwrist -42.528752588478774
rhand -4.1007510667130855 -54.63687711335594
rfingers 7.125020000000007
rthumb 21.667043117905536 -83.24929549146631
lclavicle 1.7829456954672552E-15 3.875133930068614E-15
lhumerus -44.47056932455677 -7.527890906579928 85.39686224900655
lradius 61.85686867128831
lwrist 7.19573266591256
lhand -11.693659720790636 -28.949623717738113
lfingers 7.125020000000018
lthumb 14.359855309253877 0.6092778921000068
rfemur 1.2179883193560128 -0.531791807727839 -2.9924909813752034
rtibia -4.61731061619469
rfoot 0.9118440197036293 0.6540658158991293
rtoes -0.7443084517107728
lfemur 0.8617740407668011 -6.440957863719056 -10.189356709776792
ltibia 22.316275353220135
lfoot -28.190178686397665 14.330076189983167
ltoes -60.04497868636797
214
root 0 0 0 2.0834605668891464 1.2259642937250201 -1.0184948824573001
lowerback 10.991138902204533 -0.2952199344400336 -2.287995022371396
upperback 2.007353977648311 -0.6942703291164389 1.101205773486747
thorax -3.9376901954168533 -0.25398952728471713 2.4189382534369175
lowerneck -6.57008972813937 -1.9704435035708228 -0.17417751210110355
upperneck 24.513697914027976 -3.056475360481088 2.379133876638102
head 9.250114916107657 -1.2781509238573845 0.58866114996366
rclavicle 5.177045008220053E-15 2.659501681078758E-15
rhumerus -8.333196326805771 13.812409252840894 -50.85216921162596
rradius 106.57631377544665
rwrist -42.5054783268775
rhand -4.105319199783942 -54.64031940296239
rfingers 7.125020000000007
rthumb 21.662568661113752 -83.25375381724737
lclavicle 1.7691584307298297E-15 3.840266517243165E-15
lhumerus -44.477170131647185 -7.527695380872188 85.39138491004285
lradius 61.86350619432092
lwrist 7.197712293171961
lhand -11.692885199135144 -28.95434753254304
lfingers 7.125020000000018
lthumb 14.360308583121459 0.605276243794016
rfemur 1.216513872813894 -0.5318635456685867 -2.9953597109067243
rtibia -4.621020497412566
rfoot 0.9125361203710787 0.6541131736965426
rtoes -0.7459759182358925
lfemur 0.8696577706758708 -6.44536847075679 -10.187398950767978
ltibia 22.308648218313632
lfoot -28.200556752802544 14.337430119570232
ltoes -60.06065668912079
215
root 0 0 0 2.0824951224657595 1.2262253966194652 -1.0169514549910952
lowerback 10.987933672215123 -0.29601732386988033 -2.2891893327081556
upperback 2.003644391639521 -0.6954898797824485 1.101200836529058
thorax -3.9400201393727796 -0.2545428961820331 2.4197652220377943
lowerneck -6.5751334134282535 -1.970007515025419 -0.17448580835993077
upperneck 24.513343440737195 -3.055885055573797 2.3783536226652355
head 9.250888274385602 -1.2778919003739642 0.5884775516359025
rclavicle 5.191402496441932E-15 2.6485260485931395E-15
rhumerus -8.318553907443643 13.802135872654237 -50.83276837881043
rradius 106.56994936448544
rwrist -42.53242626527904
rhand -4.099607198477614 -54.644278062226576
rfingers 7.125020000000007
rthumb 21.66812461919926 -83.25635115986081
lclavicle 1.818267866402586E-15 3.840186159073685E-15
lhumerus -44.48174482276073 -7.523588361390963 85.38786176914815
lradius 61.86297629621572
lwrist 7.194212167544036
lhand -11.691027784921344 -28.959118249603453
lfingers 7.125020000000018
lthumb 14.36244502804611 0.6001694258939381
rfemur 1.2188684695003689 -0.5322460508973315 -2.9970388096625076
rtibia -4.624760111815377
rfoot 0.9129741721813138 0.6547239614628677
rtoes -0.7462063766034992
lfemur 0.8711812773556629 -6.449998443812432 -10.190921055993472
ltibia 22.309040827738073
lfoot -28.197392976263018 14.336169833408011
ltoes -60.043897652623656
216
root 0 0 0 2.0818473140901532 1.2258116812195925 -1.0162060779332616
lowerback 10.9861343176749 -0.2963739990320743 -2.289605681069686
upperback 2.0019337670164834 -0.696008622500552 1.1013796892962842
thorax -3.9408681924019504 -0.2547745470703252 2.4202815378236173
lowerneck -6.577755080286441 -1.9696167287038824 -0.1746189052255619
upperneck 24.51698103359183 -3.0553541748201947 2.377744651794386
head 9.252535627590955 -1.277630281481371 0.5882825263046797
rclavicle 5.193198665163921E-15 2.6398517797137115E-15
rhumerus -8.31814260269775 13.793627091511137 -50.82882999156945
rradius 106.5625840065916
rwrist -42.53714673549795
rhand -4.097365338956276 -54.648928427762186
rfingers 7.125020000000007
rthumb 21.670272508515836 -83.26079107301183
lclavicle 1.8214553813606903E-15 3.82932437084199E-15
lhumerus -44.48393885653081 -7.521883108679338 85.38647102695887
lradius 61.86259695699679
lwrist 7.192989680911957
lhand -11.690396761691378 -28.960728192034043
lfingers 7.125020000000018
lthumb 14.363093945331675 0.5985376905302324
rfemur 1.2195698706287823 -0.5325637828969403 -2.998344119067612
rtibia -4.626216314946106
rfoot 0.9136691520628384 0.655153244904541
rtoes -0.7462075272038124
lfemur 0.8722918188462208 -6.450867415429212 -10.19279385056906
ltibia 22.309418334394692
lfoot -28.195404620186906 14.334558116160775
ltoes -60.03546555761756
